<?xml version="1.0" encoding="iso-8859-1"?>
<!-- Generator: Adobe Illustrator 19.0.0, SVG Export Plug-In . SVG Version: 6.00 Build 0)  -->
<svg version="1.1" id="Layer_1" xmlns="http://www.w3.org/2000/svg" xmlns:xlink="http://www.w3.org/1999/xlink" x="0px" y="0px"
	 viewBox="0 0 512 512" style="enable-background:new 0 0 512 512;" xml:space="preserve">
<g>
	<g>
		<g>
			<path d="M319.663,17.515C317.807,7.36,308.975,0,298.671,0C133.978,0,0.004,114.837,0.004,256c0,141.141,133.973,256,298.667,256
				c10.304,0,19.136-7.381,20.992-17.536l2.197-12.053c26.069-153.365,26.048-305.792-0.043-453.077L319.663,17.515z"/>
			<path d="M490.662,277.327c11.797,0,21.333-9.557,21.333-21.333c0-11.776-9.536-21.333-21.333-21.333h-33.984
				c8.704-30.784,12.779-59.435,13.845-85.333h20.139c11.797,0,21.333-9.557,21.333-21.333s-9.536-21.333-21.333-21.333h-21.056
				c-1.493-17.899-4.075-34.027-7.232-47.531c-2.667-11.477-14.165-18.624-25.621-15.915c-11.477,2.667-18.603,14.144-15.915,25.621
				c2.539,10.88,4.672,23.659,6.016,37.824h-42.859c-11.797,0-21.333,9.557-21.333,21.333s9.536,21.333,21.333,21.333h43.797
				c-1.195,25.6-5.952,54.315-15.893,85.333h-27.904c-11.797,0-21.333,9.557-21.333,21.333c0,11.776,9.536,21.333,21.333,21.333
				h14.251c-8.725,30.784-12.8,59.435-13.867,85.333h-0.384c-11.797,0-21.333,9.557-21.333,21.333s9.536,21.333,21.333,21.333h1.301
				c1.493,17.899,4.075,34.005,7.211,47.531c2.304,9.835,11.072,16.469,20.757,16.469c1.6,0,3.221-0.171,4.864-0.533
				c11.477-2.688,18.624-14.144,15.936-25.643c-2.539-10.859-4.672-23.659-6.016-37.824h62.613c11.797,0,21.333-9.557,21.333-21.333
				s-9.536-21.333-21.333-21.333H427.11c1.216-25.6,5.952-54.336,15.893-85.333H490.662z"/>
		</g>
	</g>
</g>
<g>
</g>
<g>
</g>
<g>
</g>
<g>
</g>
<g>
</g>
<g>
</g>
<g>
</g>
<g>
</g>
<g>
</g>
<g>
</g>
<g>
</g>
<g>
</g>
<g>
</g>
<g>
</g>
<g>
</g>
</svg>
