<?xml version="1.0" encoding="iso-8859-1"?>
<!-- Generator: Adobe Illustrator 19.0.0, SVG Export Plug-In . SVG Version: 6.00 Build 0)  -->
<svg version="1.1" id="Layer_1" xmlns="http://www.w3.org/2000/svg" xmlns:xlink="http://www.w3.org/1999/xlink" x="0px" y="0px"
	 viewBox="0 0 512 512" style="enable-background:new 0 0 512 512;" xml:space="preserve">
<g>
	<g>
		<path d="M326.4,44.8c-10.604,0-19.2,8.596-19.2,19.2v12.8c0,10.604,8.596,19.2,19.2,19.2s19.2-8.596,19.2-19.2V64
			C345.6,53.396,337.003,44.8,326.4,44.8z"/>
	</g>
</g>
<g>
	<g>
		<path d="M326.4,134.4c-20,0-39.046,6.057-55.278,17.522c6.03,3.081,11.901,6.534,17.558,10.397
			c0.316,0.216,0.623,0.443,0.938,0.661c5.916,4.102,11.517,8.562,16.774,13.357c11.702,10.673,21.714,22.979,29.751,36.586
			c17.083,2.638,33.201,8.228,47.823,16.223c6.463,3.533,12.631,7.533,18.463,11.96c5.894,4.475,11.445,9.384,16.6,14.68
			c2.214-8.154,3.37-16.671,3.37-25.386C422.4,177.466,379.334,134.4,326.4,134.4z"/>
	</g>
</g>
<g>
	<g>
		<path d="M492.8,211.2H480c-10.604,0-19.2,8.596-19.2,19.2s8.596,19.2,19.2,19.2h12.8c10.604,0,19.2-8.596,19.2-19.2
			S503.404,211.2,492.8,211.2z"/>
	</g>
</g>
<g>
	<g>
		<path d="M457.638,99.162c-7.497-7.497-19.654-7.497-27.153,0l-9.05,9.05c-7.498,7.497-7.498,19.654,0,27.153
			c3.749,3.749,8.662,5.624,13.576,5.624c4.914,0,9.828-1.875,13.577-5.624l9.05-9.05
			C465.138,118.816,465.138,106.659,457.638,99.162z"/>
	</g>
</g>
<g>
	<g>
		<path d="M399.877,292.227c-3.962-5.155-8.356-9.961-13.161-14.33c-4.726-4.296-9.847-8.16-15.274-11.581
			c-16.768-10.57-36.595-16.716-57.842-16.716h-0.564h-1.569c-0.205-0.518-0.431-1.025-0.643-1.54
			c-7.575-18.403-19.424-34.328-34.199-46.728c-4.91-4.122-10.143-7.85-15.649-11.153c-5.491-3.293-11.246-6.17-17.23-8.573
			c-14.103-5.664-29.431-8.755-45.347-8.755c-65.189,0-118.56,51.561-121.475,116.042C33.498,295.067,0,332.495,0,377.6
			c0,49.405,40.193,89.6,89.6,89.6h224c59.992,0,108.8-48.808,108.8-108.8C422.4,333.517,413.985,310.575,399.877,292.227z"/>
	</g>
</g>
<g>
	<g>
		<path d="M231.365,108.212l-9.05-9.05c-7.497-7.497-19.654-7.497-27.153,0c-7.498,7.497-7.498,19.654,0,27.153l8.228,8.229
			l0.82,0.819c3.749,3.749,8.663,5.624,13.577,5.624c3.924,0,7.839-1.217,11.171-3.608c0.838-0.603,1.651-1.26,2.406-2.015
			C238.863,127.868,238.863,115.711,231.365,108.212z"/>
	</g>
</g>
<g>
</g>
<g>
</g>
<g>
</g>
<g>
</g>
<g>
</g>
<g>
</g>
<g>
</g>
<g>
</g>
<g>
</g>
<g>
</g>
<g>
</g>
<g>
</g>
<g>
</g>
<g>
</g>
<g>
</g>
</svg>
