<svg width="195" height="200" xmlns="http://www.w3.org/2000/svg">
 <!-- Created with Method Draw - http://github.com/duopixel/Method-Draw/ -->

 <g>
  <title>background</title>
  <rect fill="#fff" id="canvas_background" height="202" width="197" y="-1" x="-1"/>
  <g display="none" overflow="visible" y="0" x="0" height="100%" width="100%" id="canvasGrid">
   <rect fill="url(#gridpattern)" stroke-width="0" y="0" x="0" height="100%" width="100%"/>
  </g>
 </g>
 <g>
  <title>Layer 1</title>
  <g stroke="null" transform="rotate(0.08626948297023773 97.99319458008235,116.99627685547014) " id="svg_16">
   <path stroke="null" id="svg_4" d="m32.87716,148.578656c-1.50463,-1.50463 -3.950617,-1.50463 -5.455246,0l-5.455246,5.455246l-5.455246,-5.455246c-1.50463,-1.50463 -3.950617,-1.50463 -5.455246,0c-1.50463,1.502701 -1.50463,3.950617 0,5.455246l5.455246,5.455246l-5.455246,5.453317c-1.50463,1.50463 -1.50463,3.950617 0,5.455246c0.756173,0.756173 1.743827,1.126543 2.731481,1.126543c0.987654,0 1.975308,-0.378086 2.731481,-1.126543l5.455246,-5.455246l5.455246,5.455246c0.756173,0.756173 1.743827,1.126543 2.731481,1.126543c0.987654,0 1.975308,-0.378086 2.731481,-1.126543c1.50463,-1.50463 1.50463,-3.950617 0,-5.455246l-5.455246,-5.453317l5.455246,-5.455246c1.489197,-1.50463 1.489197,-3.950617 -0.015432,-5.455246z"/>
   <path stroke="null" id="svg_5" d="m94.60555,148.578656c-1.50463,-1.50463 -3.950617,-1.50463 -5.455246,0l-5.455246,5.455246l-5.455246,-5.455246c-1.50463,-1.50463 -3.950617,-1.50463 -5.455246,0c-1.50463,1.502701 -1.50463,3.950617 0,5.455246l5.455246,5.455246l-5.455246,5.453317c-1.50463,1.50463 -1.50463,3.950617 0,5.455246c0.756173,0.756173 1.743827,1.126543 2.731481,1.126543c0.987654,0 1.975308,-0.378086 2.731481,-1.126543l5.455246,-5.455246l5.455246,5.455246c0.756173,0.756173 1.743827,1.126543 2.731481,1.126543c0.987654,0 1.975308,-0.378086 2.731481,-1.126543c1.50463,-1.50463 1.50463,-3.950617 0,-5.455246l-5.455246,-5.453317l5.455246,-5.455246c1.489197,-1.50463 1.489197,-3.950617 -0.015432,-5.455246z"/>
   <path stroke="null" id="svg_6" d="m156.333941,148.578656c-1.50463,-1.50463 -3.950617,-1.50463 -5.455246,0l-5.455246,5.455246l-5.453317,-5.455246c-1.506559,-1.50463 -3.952546,-1.50463 -5.455246,0c-1.506559,1.502701 -1.506559,3.950617 0,5.455246l5.455246,5.455246l-5.455246,5.453317c-1.506559,1.50463 -1.506559,3.950617 0,5.455246c0.756173,0.756173 1.749614,1.126543 2.731481,1.126543c0.99537,0 1.981096,-0.378086 2.731481,-1.126543l5.453317,-5.455246l5.455246,5.455246c0.756173,0.756173 1.743827,1.126543 2.731481,1.126543c0.981867,0 1.975308,-0.378086 2.731481,-1.126543c1.50463,-1.50463 1.50463,-3.950617 0,-5.455246l-5.455246,-5.453317l5.455246,-5.455246c1.496913,-1.50463 1.496913,-3.950617 -0.015432,-5.455246z"/>
   <path stroke="null" id="svg_7" d="m72.776848,132.484907l69.606476,0c26.672452,0 47.366895,-29.251541 47.366895,-54.438653c0,-27.14506 -21.697529,-50.061725 -47.366895,-50.061725c-6.807484,0 -13.458718,1.520062 -19.814813,4.544753c-11.304011,-16.527777 -29.660492,-26.288578 -49.791663,-26.288578c-32.746911,0 -60.408946,28.904319 -60.408946,63.132711c-0.007716,34.21296 27.662035,63.111492 60.408946,63.111492z"/>
   <path stroke="null" id="svg_8" d="m53.533023,145.623409l-7.083333,7.716049c-1.442901,1.566358 -1.334876,4.012345 0.231481,5.445601c0.740741,0.686728 1.674383,1.020447 2.608024,1.020447c1.041667,0 2.083333,-0.426312 2.839506,-1.25l7.083333,-7.716049c1.442901,-1.568287 1.334876,-4.012345 -0.231481,-5.44753c-1.558642,-1.442901 -3.996913,-1.332947 -5.44753,0.231481z"/>
   <path stroke="null" id="svg_9" d="m115.261413,145.623409l-7.083333,7.716049c-1.442901,1.566358 -1.334876,4.012345 0.229552,5.445601c0.74267,0.686728 1.676312,1.020447 2.609954,1.020447c1.041667,0 2.083333,-0.426312 2.839506,-1.25l7.083333,-7.716049c1.442901,-1.568287 1.334876,-4.012345 -0.229552,-5.44753c-1.560571,-1.442901 -3.998842,-1.332947 -5.449459,0.231481z"/>
   <path stroke="null" id="svg_10" d="m176.989803,145.623409l-7.083333,7.716049c-1.442901,1.566358 -1.334876,4.012345 0.229552,5.445601c0.74267,0.686728 1.676312,1.020447 2.609954,1.020447c1.041667,0 2.083333,-0.426312 2.839506,-1.25l7.083333,-7.716049c1.442901,-1.568287 1.334876,-4.012345 -0.229552,-5.44753c-1.560571,-1.442901 -3.998842,-1.332947 -5.449459,0.231481z"/>
   <path stroke="null" id="svg_11" d="m53.533023,168.771555l-7.083333,7.716049c-1.442901,1.566358 -1.334876,4.012345 0.231481,5.445601c0.740741,0.686728 1.674383,1.020447 2.608024,1.020447c1.041667,0 2.083333,-0.426312 2.839506,-1.25l7.083333,-7.716049c1.442901,-1.568287 1.334876,-4.012345 -0.231481,-5.44753c-1.558642,-1.442901 -3.996913,-1.332947 -5.44753,0.231481z"/>
   <path stroke="null" id="svg_12" d="m115.261413,168.771555l-7.083333,7.716049c-1.442901,1.566358 -1.334876,4.012345 0.229552,5.445601c0.74267,0.686728 1.676312,1.020447 2.609954,1.020447c1.041667,0 2.083333,-0.426312 2.839506,-1.25l7.083333,-7.716049c1.442901,-1.568287 1.334876,-4.012345 -0.229552,-5.44753c-1.560571,-1.442901 -3.998842,-1.332947 -5.449459,0.231481z"/>
   <path stroke="null" id="svg_13" d="m176.989803,168.771555l-7.083333,7.716049c-1.442901,1.566358 -1.334876,4.012345 0.229552,5.445601c0.74267,0.686728 1.676312,1.020447 2.609954,1.020447c1.041667,0 2.083333,-0.426312 2.839506,-1.25l7.083333,-7.716049c1.442901,-1.568287 1.334876,-4.012345 -0.229552,-5.44753c-1.560571,-1.442901 -3.998842,-1.332947 -5.449459,0.231481z"/>
   <text stroke="null" transform="matrix(2.128276121719619,0,0,2.251823985305006,-20.489936894919083,-51.962614716303506) " id="svg_14" font-family="'Helvetica Neue', Helvetica, Arial-Unicode, Arial, Sans-serif" font-weight="bold" font-size="5px" fill="#000000" y="118.207376" x="13.074471">Created by iconsmind.com</text>
   <text stroke="null" transform="matrix(2.128276121719619,0,0,2.251823985305006,-20.489936894919083,-51.962614716303506) " id="svg_15" font-family="'Helvetica Neue', Helvetica, Arial-Unicode, Arial, Sans-serif" font-weight="bold" font-size="5px" fill="#000000" y="123.207376" x="13.074471">from the Noun Project</text>
  </g>
 </g>
</svg>