<?xml version="1.0" encoding="iso-8859-1"?>
<!-- Generator: Adobe Illustrator 18.0.0, SVG Export Plug-In . SVG Version: 6.00 Build 0)  -->
<!DOCTYPE svg PUBLIC "-//W3C//DTD SVG 1.1//EN" "http://www.w3.org/Graphics/SVG/1.1/DTD/svg11.dtd">
<svg version="1.1" id="Capa_1" xmlns="http://www.w3.org/2000/svg" xmlns:xlink="http://www.w3.org/1999/xlink" x="0px" y="0px"
	 viewBox="0 0 349.027 349.027" style="enable-background:new 0 0 349.027 349.027;" xml:space="preserve">
<g>
	<polygon points="155.314,285.028 143.907,277.953 132.471,296.473 121.014,277.953 109.606,285.028 120.438,302.513 
		99.867,302.513 99.867,315.926 120.438,315.926 109.606,333.406 121.014,340.475 132.471,321.941 143.907,340.475 155.314,333.406 
		144.484,315.926 165.064,315.926 165.064,302.513 144.484,302.513 	"/>
	<polygon points="230.363,253.771 218.977,246.717 207.523,265.244 196.066,246.717 184.672,253.771 195.489,271.254 
		174.93,271.254 174.93,284.658 195.489,284.658 184.672,302.165 196.066,309.219 207.523,290.709 218.977,309.219 230.363,302.165 
		219.556,284.658 240.116,284.658 240.116,271.254 219.556,271.254 	"/>
	<path d="M274.057,80.616c-10.97-28.288-38.415-48.313-70.557-48.313c-3.059,0-6.078,0.189-9.063,0.566
		c-13.815-14.95-33.563-24.316-55.528-24.316c-40.891,0-74.202,32.471-75.585,73.041C27.408,87.49,0,118.65,0,156.268
		c0,41.773,33.862,75.629,75.647,75.629h197.717c41.78,0,75.663-33.855,75.663-75.629
		C349.027,114.711,315.526,80.994,274.057,80.616z"/>
</g>
<g>
</g>
<g>
</g>
<g>
</g>
<g>
</g>
<g>
</g>
<g>
</g>
<g>
</g>
<g>
</g>
<g>
</g>
<g>
</g>
<g>
</g>
<g>
</g>
<g>
</g>
<g>
</g>
<g>
</g>
</svg>
